<svg width="28" height="28" viewBox="0 0 28 28" fill="none" xmlns="http://www.w3.org/2000/svg">
<path d="M7.615 13.4H13.4V8.378C11.662 8.338 9.971 8.14 8.398 7.774C7.935 9.491 7.662 11.4 7.615 13.4Z" fill="black"/>
<path d="M13.4 27.646V20.822C11.795 20.861 10.221 21.049 8.752 21.386C9.783 24.45 11.434 26.756 13.4 27.646Z" fill="black"/>
<path d="M8.398 20.227C9.971 19.862 11.662 19.664 13.4 19.623V14.6H7.615C7.662 16.602 7.935 18.509 8.398 20.227Z" fill="black"/>
<path d="M8.752 6.613C10.222 6.952 11.795 7.137 13.4 7.178V0.352997C11.433 1.245 9.783 3.55 8.752 6.613Z" fill="black"/>
<path d="M14.6 0.352997V7.178C16.205 7.137 17.78 6.952 19.248 6.613C18.217 3.549 16.566 1.244 14.6 0.352997Z" fill="black"/>
<path d="M21.585 13.4H27.971C27.844 10.444 26.807 7.731 25.125 5.526C23.861 6.319 22.395 6.976 20.768 7.452C21.256 9.267 21.539 11.28 21.585 13.4Z" fill="black"/>
<path d="M20.768 20.548C22.395 21.026 23.862 21.682 25.126 22.475C26.809 20.27 27.844 17.557 27.971 14.6H21.585C21.539 16.72 21.256 18.732 20.768 20.548Z" fill="black"/>
<path d="M20.418 6.293C21.885 5.864 23.207 5.282 24.348 4.592C22.346 2.394 19.664 0.832005 16.627 0.255005C18.227 1.57 19.545 3.67301 20.418 6.293Z" fill="black"/>
<path d="M19.248 21.389C17.777 21.049 16.205 20.864 14.6 20.824V27.649C16.566 26.756 18.217 24.45 19.248 21.389Z" fill="black"/>
<path d="M20.385 14.6H14.6V19.623C16.338 19.663 18.03 19.859 19.602 20.227C20.064 18.509 20.338 16.602 20.385 14.6Z" fill="black"/>
<path d="M7.582 21.706C6.115 22.136 4.794 22.718 3.654 23.408C5.654 25.605 8.336 27.168 11.373 27.745C9.773 26.43 8.455 24.326 7.582 21.706Z" fill="black"/>
<path d="M16.627 27.745C19.664 27.168 22.346 25.605 24.346 23.408C23.206 22.718 21.885 22.136 20.418 21.706C19.545 24.326 18.227 26.43 16.627 27.745Z" fill="black"/>
<path d="M6.415 14.6H0.0300007C0.156001 17.557 1.192 20.27 2.874 22.475C4.139 21.682 5.605 21.026 7.233 20.548C6.744 18.732 6.461 16.72 6.415 14.6Z" fill="black"/>
<path d="M19.602 7.77299C18.03 8.13899 16.338 8.337 14.6 8.377V13.4H20.385C20.338 11.4 20.064 9.491 19.602 7.77299Z" fill="black"/>
<path d="M7.233 7.452C5.605 6.976 4.139 6.319 2.875 5.526C1.193 7.73 0.156001 10.444 0.0300007 13.4H6.415C6.461 11.28 6.744 9.267 7.233 7.452Z" fill="black"/>
<path d="M11.373 0.253998C8.336 0.830998 5.654 2.393 3.653 4.591C4.793 5.282 6.115 5.864 7.582 6.293C8.455 3.672 9.773 1.569 11.373 0.253998Z" fill="black"/>
</svg>
